<svg height="480.00015pt" viewBox="0 0 480.00015 480.00015" width="480.00015pt" xmlns="http://www.w3.org/2000/svg"><path d="m472 280v96l-24 4.960938-440 91.039062v-96l440-91.039062zm0 0" fill="#ffcd00"/><path d="m472 184v96l-24 4.960938-440 91.039062v-96l440.160156-91.039062zm0 0" fill="#ffda44"/><path d="m475.679688 183.839844-.800782.160156-23.839844 4.960938-440.160156 91.039062 220.480469-182.480469 10.640625-8.800781 3.121094.160156c12.480468.640625 25.519531 1.601563 40 3.199219l8.960937.882813-2.082031 8.800781-.078125.398437c-.667969 3.238282-1.015625 6.535156-1.042969 9.839844 0 26.507812 21.492188 48 48 48 .882813 0 1.679688 0 2.5625-.078125.746094-.015625 1.496094-.070313 2.238282-.160156 1.359374-.160157 2.71875-.320313 4.082031-.5625.71875-.160157 1.4375-.320313 2.078125-.480469.800781-.160156 1.519531-.398438 2.320312-.640625 1.011719-.234375 2.003906-.554687 2.960938-.957031 1.277344-.480469 2.558594-.960938 3.757812-1.519532 1.234375-.550781 2.433594-1.164062 3.601563-1.839843 1.183593-.664063 2.328125-1.382813 3.441406-2.160157 2.011719-1.363281 3.914063-2.886718 5.679687-4.5625 1.25-1.117187 2.425782-2.320312 3.519532-3.597656.800781-.960937 1.597656-1.921875 2.320312-2.960937l.160156-.160157 1.679688-2.398437c.375-.570313.722656-1.15625 1.039062-1.761719.472657-.746094.902344-1.519531 1.28125-2.320312.238282-.398438.398438-.800782.636719-1.199219.402344-.878906.800781-1.761719 1.203125-2.71875.222656-.550781.40625-1.109375.558594-1.683594v-.078125c.824219-2.101562 1.464844-4.269531 1.921875-6.480468l1.839844-9.039063 8.71875 3.121094c45.359375 16.316406 72.078125 37.117187 77.359375 60.160156zm0 0" fill="#e03352"/><path d="m448 288v92.960938l-440 91.039062v-92.960938zm0 0" fill="#ffda44"/><path d="m8 283.039062v96l440-91.039062v-96zm0 0" fill="#ffeb99"/><g fill="#e8667d"><path d="m448.160156 188.960938-440.160156 91.039062 220.480469-182.480469 10.640625-8.800781 3.117187.160156c12.480469.640625 25.523438 1.601563 40 3.199219l1.441407.160156c-2.449219 6.300781-3.695313 13.003907-3.679688 19.761719-.03125 26.125 18.042969 48.785156 43.519531 54.558594 4.089844.972656 8.277344 1.453125 12.480469 1.441406 23.464844.0625 44.453125-14.589844 52.480469-36.640625 33.917969 14.878906 54 32.878906 58.480469 52.5625zm0 0"/><path d="m388.480469 131.359375c-8.027344 22.050781-29.015625 36.703125-52.480469 36.640625-4.203125.011719-8.390625-.46875-12.480469-1.441406 5.359375-1.332032 10.445313-3.578125 15.039063-6.636719.75-.015625 1.5-.070313 2.242187-.160156 1.359375-.160157 2.71875-.320313 4.078125-.5625.722656-.160157 1.441406-.320313 2.082032-.480469.800781-.160156 1.519531-.398438 2.320312-.640625 1.011719-.234375 2-.554687 2.957031-.957031 1.28125-.480469 2.5625-.960938 3.761719-1.519532 1.230469-.550781 2.433594-1.164062 3.601562-1.839843 1.179688-.664063 2.328126-1.382813 3.4375-2.160157 2.015626-1.363281 3.914063-2.886718 5.679688-4.5625 1.253906-1.117187 2.429688-2.320312 3.519531-3.597656.800781-.960937 1.601563-1.921875 2.320313-2.960937l.160156-.160157 1.679688-2.398437c.378906-.570313.726562-1.15625 1.042968-1.761719.472656-.746094.898438-1.519531 1.277344-2.320312.242188-.398438.402344-.800782.640625-1.199219.402344-.878906.800781-1.761719 1.199219-2.71875.222656-.550781.410156-1.109375.5625-1.683594 2.480468 1.042969 4.960937 2.082031 7.359375 3.121094zm0 0"/><path d="m448.800781 191.839844-.800781.160156-440 91.039062v-3.039062l440.160156-91.039062zm0 0"/></g><path d="m336 56c-22.367188-.003906-42.589844 13.300781-51.441406 33.839844-.320313.800781-.636719 1.601562-.878906 2.398437-2.449219 6.300781-3.695313 13.003907-3.679688 19.761719-.03125 26.125 18.042969 48.785156 43.519531 54.558594 4.089844.972656 8.277344 1.453125 12.480469 1.441406 23.464844.0625 44.453125-14.589844 52.480469-36.640625 2.019531-5.1875 3.15625-10.675781 3.359375-16.238281.132812-1.035156.1875-2.078125.160156-3.121094 0-30.929688-25.070312-56-56-56zm0 0" fill="#d80027"/><path d="m391.761719 106.558594c-2.554688-25.390625-21.914063-45.863282-47.121094-49.839844 2.71875-24.640625 13.597656-40.71875 23.359375-40.71875 4.417969 0 8-3.582031 8-8s-3.582031-8-8-8c-20 0-36.320312 23.839844-39.441406 56.558594-17.402344 2.3125-32.699219 12.6875-41.277344 28-15.359375-1.757813-31.359375-3.117188-47.761719-3.839844-.320312 0-.558593.160156-.878906.160156-.703125.023438-1.402344.128906-2.082031.320313-.21875.164062-.460938.296875-.71875.402343-.613282.269532-1.199219.589844-1.757813.957032l-231.203125 191.28125c-.160156.160156-.238281.320312-.398437.480468-.421875.441407-.796875.921876-1.121094 1.441407-.261719.296875-.453125.652343-.558594 1.039062-.246093.539063-.433593 1.101563-.5625 1.679688-.097656.363281-.1484372.742187-.1562498 1.121093 0 .160157-.0820312.238282-.0820312.398438v192c-.0117188 2.125.824219 4.167969 2.328125 5.671875s3.546875 2.339844 5.671875 2.328125c.535156-.007812 1.070312-.0625 1.601562-.160156l464-96c3.722657-.761719 6.398438-4.039063 6.398438-7.839844v-192c0-30.320312-31.28125-57.839844-88.238281-77.441406zm-55.761719-34.558594c22.089844 0 40 17.910156 40 40s-17.910156 40-40 40-40-17.910156-40-40 17.910156-40 40-40zm-94.160156 24.878906c13.519531.640625 26.71875 1.761719 39.519531 3.121094-.902344 3.9375-1.359375 7.960938-1.359375 12-.070312 28.785156 21.695312 52.9375 50.332031 55.847656 28.636719 2.914063 54.820313-16.359375 60.546875-44.566406 42 15.117188 67.761719 34.558594 72.320313 54.398438l-425.277344 88zm222.160156 272.640625-448 92.640625v-79.679687l448-92.640625zm0-96-448 92.640625v-79.679687l448-92.640625zm0 0"/></svg>