<?xml version="1.0" encoding="iso-8859-1"?>
<!-- Generator: Adobe Illustrator 19.0.0, SVG Export Plug-In . SVG Version: 6.00 Build 0)  -->
<svg version="1.1" id="Capa_1" xmlns="http://www.w3.org/2000/svg" xmlns:xlink="http://www.w3.org/1999/xlink" x="0px" y="0px"
	 viewBox="0 0 496.485 496.485" style="enable-background:new 0 0 496.485 496.485;" xml:space="preserve">
<circle style="fill:#FDBE5E;" cx="248.242" cy="248.242" r="248.242"/>
<rect x="124.897" y="113.261" style="fill:#FFFFFF;" width="246.691" height="375.467"/>
<path style="fill:#193651;" d="M371.588,496.485H124.897c-4.655,0-7.758-3.103-7.758-7.758V113.261c0-4.655,3.103-7.758,7.758-7.758
	h246.691c4.655,0,7.758,3.103,7.758,7.758v375.467C379.345,493.382,376.242,496.485,371.588,496.485z M132.655,480.97H363.83
	V121.018H132.655V480.97z"/>
<rect x="204.257" y="416.047" style="fill:#2BA1DB;" width="86.885" height="65.939"/>
<polygon style="fill:#E1E6E9;" points="473.212,488.727 371.588,488.727 371.588,248.242 433.648,248.242 433.648,291.685 
	473.212,291.685 "/>
<path style="fill:#193651;" d="M473.212,496.485H371.588c-4.655,0-7.758-3.103-7.758-7.758V248.242c0-4.655,3.103-7.758,7.758-7.758
	h62.061c4.655,0,7.758,3.103,7.758,7.758v36.461h31.806c4.655,0,7.758,3.103,7.758,7.758v196.267
	C480.97,493.382,477.867,496.485,473.212,496.485z M379.345,480.97h86.109V299.442h-32.582c-4.655,0-7.758-3.103-7.758-7.758V256
	H378.57v224.97H379.345z"/>
<polygon style="fill:#E1E6E9;" points="23.273,488.727 124.897,488.727 124.897,248.242 62.836,248.242 62.836,291.685 
	23.273,291.685 "/>
<path style="fill:#193651;" d="M124.897,496.485H23.273c-4.655,0-7.758-3.103-7.758-7.758V291.685c0-4.655,3.103-7.758,7.758-7.758
	h32.582v-35.685c0-4.655,3.103-7.758,7.758-7.758h62.061c4.655,0,7.758,3.103,7.758,7.758v240.485
	C132.655,493.382,128.776,496.485,124.897,496.485z M31.03,480.97h86.109V256H70.594v36.461c0,4.655-3.103,7.758-7.758,7.758H31.03
	V480.97z"/>
<rect x="159.806" y="76.8" style="fill:#E1E6E9;" width="177.648" height="36.461"/>
<g>
	<path style="fill:#193651;" d="M336.679,121.018H159.806c-4.655,0-7.758-3.103-7.758-7.758V76.8c0-4.655,3.103-7.758,7.758-7.758
		h177.648c4.655,0,7.758,3.103,7.758,7.758v36.461C344.436,117.915,341.333,121.018,336.679,121.018z M167.564,105.503h162.133
		V84.558H167.564V105.503z"/>
	<path style="fill:#193651;" d="M225.745,84.558c-4.655,0-7.758-3.103-7.758-7.758V38.012c0-4.655,3.103-7.758,7.758-7.758
		c4.655,0,7.758,3.103,7.758,7.758V76.8C233.503,81.455,230.4,84.558,225.745,84.558z"/>
	<path style="fill:#193651;" d="M270.739,84.558c-4.655,0-7.758-3.103-7.758-7.758V52.752c0-4.655,3.103-7.758,7.758-7.758
		s7.758,3.103,7.758,7.758V76.8C278.497,81.455,274.618,84.558,270.739,84.558z"/>
	<rect x="86.885" y="286.255" style="fill:#193651;" width="15.515" height="14.739"/>
	<rect x="86.885" y="318.836" style="fill:#193651;" width="15.515" height="14.739"/>
	<rect x="44.994" y="318.836" style="fill:#193651;" width="15.515" height="14.739"/>
	<rect x="86.885" y="350.642" style="fill:#193651;" width="15.515" height="14.739"/>
	<rect x="44.994" y="350.642" style="fill:#193651;" width="15.515" height="14.739"/>
	<rect x="86.885" y="383.224" style="fill:#193651;" width="15.515" height="14.739"/>
	<rect x="44.994" y="383.224" style="fill:#193651;" width="15.515" height="14.739"/>
	<rect x="86.885" y="415.806" style="fill:#193651;" width="15.515" height="14.739"/>
	<rect x="44.994" y="415.806" style="fill:#193651;" width="15.515" height="14.739"/>
	<rect x="86.885" y="448.388" style="fill:#193651;" width="15.515" height="14.739"/>
	<rect x="44.994" y="448.388" style="fill:#193651;" width="15.515" height="14.739"/>
	<rect x="394.085" y="286.255" style="fill:#193651;" width="15.515" height="14.739"/>
	<rect x="394.085" y="318.836" style="fill:#193651;" width="15.515" height="14.739"/>
	<rect x="435.976" y="318.836" style="fill:#193651;" width="15.515" height="14.739"/>
	<rect x="394.085" y="350.642" style="fill:#193651;" width="15.515" height="14.739"/>
	<rect x="435.976" y="350.642" style="fill:#193651;" width="15.515" height="14.739"/>
	<rect x="394.085" y="383.224" style="fill:#193651;" width="15.515" height="14.739"/>
	<rect x="435.976" y="383.224" style="fill:#193651;" width="15.515" height="14.739"/>
	<rect x="394.085" y="415.806" style="fill:#193651;" width="15.515" height="14.739"/>
	<rect x="435.976" y="415.806" style="fill:#193651;" width="15.515" height="14.739"/>
	<rect x="394.085" y="448.388" style="fill:#193651;" width="15.515" height="14.739"/>
	<rect x="435.976" y="448.388" style="fill:#193651;" width="15.515" height="14.739"/>
</g>
<g>
	<rect x="153.6" y="142.739" style="fill:#2BA1DB;" width="35.685" height="42.667"/>
	<rect x="204.8" y="142.739" style="fill:#2BA1DB;" width="35.685" height="42.667"/>
	<rect x="256" y="142.739" style="fill:#2BA1DB;" width="35.685" height="42.667"/>
	<rect x="307.2" y="142.739" style="fill:#2BA1DB;" width="35.685" height="42.667"/>
	<rect x="153.6" y="202.473" style="fill:#2BA1DB;" width="35.685" height="42.667"/>
	<rect x="204.8" y="202.473" style="fill:#2BA1DB;" width="35.685" height="42.667"/>
	<rect x="256" y="202.473" style="fill:#2BA1DB;" width="35.685" height="42.667"/>
	<rect x="307.2" y="202.473" style="fill:#2BA1DB;" width="35.685" height="42.667"/>
	<rect x="153.6" y="262.982" style="fill:#2BA1DB;" width="35.685" height="42.667"/>
	<rect x="204.8" y="262.982" style="fill:#2BA1DB;" width="35.685" height="42.667"/>
	<rect x="256" y="262.982" style="fill:#2BA1DB;" width="35.685" height="42.667"/>
	<rect x="307.2" y="262.982" style="fill:#2BA1DB;" width="35.685" height="42.667"/>
	<rect x="153.6" y="323.491" style="fill:#2BA1DB;" width="35.685" height="42.667"/>
	<rect x="204.8" y="323.491" style="fill:#2BA1DB;" width="35.685" height="42.667"/>
	<rect x="256" y="323.491" style="fill:#2BA1DB;" width="35.685" height="42.667"/>
	<rect x="307.2" y="323.491" style="fill:#2BA1DB;" width="35.685" height="42.667"/>
</g>
<path style="fill:#193651;" d="M488.727,496.485H7.758c-4.655,0-7.758-3.103-7.758-7.758s3.103-7.758,7.758-7.758h480.97
	c4.655,0,7.758,3.103,7.758,7.758S493.382,496.485,488.727,496.485z"/>
<g>
</g>
<g>
</g>
<g>
</g>
<g>
</g>
<g>
</g>
<g>
</g>
<g>
</g>
<g>
</g>
<g>
</g>
<g>
</g>
<g>
</g>
<g>
</g>
<g>
</g>
<g>
</g>
<g>
</g>
</svg>
